<?xml version="1.0" encoding="UTF-8"?>
<svg id="Layer_2" data-name="Layer 2" xmlns="http://www.w3.org/2000/svg" xmlns:xlink="http://www.w3.org/1999/xlink" viewBox="0 0 160.92 164.78">
  <defs>
    <style>
      .cls-1 {
        fill: url(#linear-gradient);
      }

      .cls-1, .cls-2, .cls-3, .cls-4 {
        stroke-width: 0px;
      }

      .cls-2 {
        fill: url(#radial-gradient);
      }

      .cls-3 {
        fill: url(#radial-gradient-2);
      }

      .cls-4 {
        fill: url(#linear-gradient-2);
      }
    </style>
    <radialGradient id="radial-gradient" cx="122.94" cy="55.12" fx="122.94" fy="55.12" r="145.94" gradientUnits="userSpaceOnUse">
      <stop offset=".07" stop-color="#8c48ff"/>
      <stop offset=".41" stop-color="#f2598a"/>
      <stop offset=".9" stop-color="#ffb152"/>
    </radialGradient>
    <linearGradient id="linear-gradient" x1="116.02" y1="18.88" x2="90.93" y2="61.39" gradientUnits="userSpaceOnUse">
      <stop offset=".12" stop-color="#f8adfa"/>
      <stop offset=".66" stop-color="#a86edd" stop-opacity="0"/>
    </linearGradient>
    <radialGradient id="radial-gradient-2" cx="58.95" cy="83.15" fx="34.08" fy="83.15" r="68.05" gradientUnits="userSpaceOnUse">
      <stop offset=".1" stop-color="#00aeff"/>
      <stop offset=".77" stop-color="#2253ce"/>
      <stop offset="1" stop-color="#0736c4"/>
    </radialGradient>
    <linearGradient id="linear-gradient-2" x1="75.53" y1="45.21" x2="29.39" y2="142.8" gradientUnits="userSpaceOnUse">
      <stop offset="0" stop-color="#3dcbff"/>
      <stop offset=".25" stop-color="#0588f7" stop-opacity="0"/>
    </linearGradient>
  </defs>
  <g id="Layer_1-2" data-name="Layer 1">
    <g>
      <g>
        <path class="cls-2" d="M78.53,0C47.8,0,21,16.83,6.84,41.78c12.09-15.48,30.92-25.43,52.08-25.43,36.48,0,66.04,29.57,66.04,66.04s-29.57,66.04-66.04,66.04c-21.16,0-39.99-9.95-52.08-25.43,14.16,24.95,40.96,41.78,71.7,41.78,45.5,0,82.39-36.89,82.39-82.39S124.04,0,78.53,0Z"/>
        <path class="cls-1" d="M78.53,0C47.8,0,21,16.83,6.84,41.78c12.09-15.48,30.92-25.43,52.08-25.43,36.48,0,66.04,29.57,66.04,66.04s-29.57,66.04-66.04,66.04c-21.16,0-39.99-9.95-52.08-25.43,14.16,24.95,40.96,41.78,71.7,41.78,45.5,0,82.39-36.89,82.39-82.39S124.04,0,78.53,0Z"/>
      </g>
      <g>
        <path class="cls-3" d="M72.05,128.7c-25.76,0-46.65-20.89-46.65-46.65s20.89-46.65,46.65-46.65c14.97,0,28.29,7.06,36.82,18.03-9.99-17.66-28.94-29.57-50.68-29.57C26.06,23.86,0,49.91,0,82.05s26.06,58.2,58.2,58.2c21.74,0,40.69-11.92,50.68-29.57-8.54,10.97-21.85,18.03-36.82,18.03Z"/>
        <path class="cls-4" d="M72.05,128.7c-25.76,0-46.65-20.89-46.65-46.65s20.89-46.65,46.65-46.65c14.97,0,28.29,7.06,36.82,18.03-9.99-17.66-28.94-29.57-50.68-29.57C26.06,23.86,0,49.91,0,82.05s26.06,58.2,58.2,58.2c21.74,0,40.69-11.92,50.68-29.57-8.54,10.97-21.85,18.03-36.82,18.03Z"/>
      </g>
    </g>
  </g>
</svg>